{
	"asset":{
		"generator":"Khronos glTF Blender I/O v4.3.47",
		"version":"2.0"
	},
	"extensionsUsed":[
		"KHR_materials_specular"
	],
	"scene":0,
	"scenes":[
		{
			"name":"Scene",
			"nodes":[
				0,
				1,
				2
			]
		}
	],
	"nodes":[
		{
			"mesh":0,
			"name":"sm_1_0_0",
			"translation":[
				0,
				0.20987191796302795,
				-0.05469389259815216
			]
		},
		{
			"mesh":1,
			"name":"sm_1_0_0.001",
			"translation":[
				-0.42432284355163574,
				0.20987191796302795,
				-0.21348924934864044
			]
		},
		{
			"mesh":2,
			"name":"sm_1_0_0.002",
			"translation":[
				0.4246281385421753,
				0.20987191796302795,
				0.10367002338171005
			]
		}
	],
	"materials":[
		{
			"doubleSided":true,
			"extensions":{
				"KHR_materials_specular":{
					"specularFactor":0
				}
			},
			"name":"Material.003",
			"pbrMetallicRoughness":{
				"baseColorTexture":{
					"index":0
				},
				"metallicFactor":0
			}
		},
		{
			"doubleSided":true,
			"extensions":{
				"KHR_materials_specular":{
					"specularFactor":0
				}
			},
			"name":"Material.001",
			"pbrMetallicRoughness":{
				"baseColorTexture":{
					"index":1
				},
				"metallicFactor":0
			}
		},
		{
			"doubleSided":true,
			"extensions":{
				"KHR_materials_specular":{
					"specularFactor":0
				}
			},
			"name":"Material.004",
			"pbrMetallicRoughness":{
				"baseColorTexture":{
					"index":2
				},
				"metallicFactor":0
			}
		}
	],
	"meshes":[
		{
			"name":"sm_1_0_0_mesh0000",
			"primitives":[
				{
					"attributes":{
						"POSITION":0,
						"NORMAL":1,
						"TEXCOORD_0":2,
						"TEXCOORD_1":3,
						"COLOR_0":4,
						"COLOR_1":5
					},
					"indices":6,
					"material":0
				}
			]
		},
		{
			"name":"sm_1_0_0_mesh0000.001",
			"primitives":[
				{
					"attributes":{
						"POSITION":7,
						"NORMAL":8,
						"TEXCOORD_0":9,
						"TEXCOORD_1":10,
						"COLOR_0":11,
						"COLOR_1":12
					},
					"indices":6,
					"material":1
				}
			]
		},
		{
			"name":"sm_1_0_0_mesh0000.002",
			"primitives":[
				{
					"attributes":{
						"POSITION":13,
						"NORMAL":14,
						"TEXCOORD_0":15,
						"TEXCOORD_1":16,
						"COLOR_0":17,
						"COLOR_1":18
					},
					"indices":6,
					"material":2
				}
			]
		}
	],
	"textures":[
		{
			"sampler":0,
			"source":0
		},
		{
			"sampler":0,
			"source":1
		},
		{
			"sampler":0,
			"source":2
		}
	],
	"images":[
		{
			"mimeType":"image/png",
			"name":"Chicken 2",
			"uri":"Chicken%202.png"
		},
		{
			"mimeType":"image/png",
			"name":"Chicken 1.png",
			"uri":"Chicken%201_png.png"
		},
		{
			"mimeType":"image/png",
			"name":"Chicken 3",
			"uri":"Chicken%203.png"
		}
	],
	"accessors":[
		{
			"bufferView":0,
			"componentType":5126,
			"count":5515,
			"max":[
				0.3762210011482239,
				0.2900390028953552,
				0.3137210011482239
			],
			"min":[
				-0.3762210011482239,
				-0.21166999638080597,
				-0.1289059966802597
			],
			"type":"VEC3"
		},
		{
			"bufferView":1,
			"componentType":5126,
			"count":5515,
			"type":"VEC3"
		},
		{
			"bufferView":2,
			"componentType":5126,
			"count":5515,
			"type":"VEC2"
		},
		{
			"bufferView":3,
			"componentType":5126,
			"count":5515,
			"type":"VEC2"
		},
		{
			"bufferView":4,
			"componentType":5121,
			"count":5515,
			"normalized":true,
			"type":"VEC4"
		},
		{
			"bufferView":5,
			"componentType":5123,
			"count":5515,
			"normalized":true,
			"type":"VEC4"
		},
		{
			"bufferView":6,
			"componentType":5123,
			"count":22215,
			"type":"SCALAR"
		},
		{
			"bufferView":7,
			"componentType":5126,
			"count":5515,
			"max":[
				0.3762210011482239,
				0.2900390028953552,
				0.3137210011482239
			],
			"min":[
				-0.3762210011482239,
				-0.21166999638080597,
				-0.1289059966802597
			],
			"type":"VEC3"
		},
		{
			"bufferView":8,
			"componentType":5126,
			"count":5515,
			"type":"VEC3"
		},
		{
			"bufferView":9,
			"componentType":5126,
			"count":5515,
			"type":"VEC2"
		},
		{
			"bufferView":10,
			"componentType":5126,
			"count":5515,
			"type":"VEC2"
		},
		{
			"bufferView":11,
			"componentType":5121,
			"count":5515,
			"normalized":true,
			"type":"VEC4"
		},
		{
			"bufferView":12,
			"componentType":5123,
			"count":5515,
			"normalized":true,
			"type":"VEC4"
		},
		{
			"bufferView":13,
			"componentType":5126,
			"count":5515,
			"max":[
				0.3762210011482239,
				0.2900390028953552,
				0.3137210011482239
			],
			"min":[
				-0.3762210011482239,
				-0.21166999638080597,
				-0.1289059966802597
			],
			"type":"VEC3"
		},
		{
			"bufferView":14,
			"componentType":5126,
			"count":5515,
			"type":"VEC3"
		},
		{
			"bufferView":15,
			"componentType":5126,
			"count":5515,
			"type":"VEC2"
		},
		{
			"bufferView":16,
			"componentType":5126,
			"count":5515,
			"type":"VEC2"
		},
		{
			"bufferView":17,
			"componentType":5121,
			"count":5515,
			"normalized":true,
			"type":"VEC4"
		},
		{
			"bufferView":18,
			"componentType":5123,
			"count":5515,
			"normalized":true,
			"type":"VEC4"
		}
	],
	"bufferViews":[
		{
			"buffer":0,
			"byteLength":66180,
			"byteOffset":0,
			"target":34962
		},
		{
			"buffer":0,
			"byteLength":66180,
			"byteOffset":66180,
			"target":34962
		},
		{
			"buffer":0,
			"byteLength":44120,
			"byteOffset":132360,
			"target":34962
		},
		{
			"buffer":0,
			"byteLength":44120,
			"byteOffset":176480,
			"target":34962
		},
		{
			"buffer":0,
			"byteLength":22060,
			"byteOffset":220600,
			"target":34962
		},
		{
			"buffer":0,
			"byteLength":44120,
			"byteOffset":242660,
			"target":34962
		},
		{
			"buffer":0,
			"byteLength":44430,
			"byteOffset":286780,
			"target":34963
		},
		{
			"buffer":0,
			"byteLength":66180,
			"byteOffset":331212,
			"target":34962
		},
		{
			"buffer":0,
			"byteLength":66180,
			"byteOffset":397392,
			"target":34962
		},
		{
			"buffer":0,
			"byteLength":44120,
			"byteOffset":463572,
			"target":34962
		},
		{
			"buffer":0,
			"byteLength":44120,
			"byteOffset":507692,
			"target":34962
		},
		{
			"buffer":0,
			"byteLength":22060,
			"byteOffset":551812,
			"target":34962
		},
		{
			"buffer":0,
			"byteLength":44120,
			"byteOffset":573872,
			"target":34962
		},
		{
			"buffer":0,
			"byteLength":66180,
			"byteOffset":617992,
			"target":34962
		},
		{
			"buffer":0,
			"byteLength":66180,
			"byteOffset":684172,
			"target":34962
		},
		{
			"buffer":0,
			"byteLength":44120,
			"byteOffset":750352,
			"target":34962
		},
		{
			"buffer":0,
			"byteLength":44120,
			"byteOffset":794472,
			"target":34962
		},
		{
			"buffer":0,
			"byteLength":22060,
			"byteOffset":838592,
			"target":34962
		},
		{
			"buffer":0,
			"byteLength":44120,
			"byteOffset":860652,
			"target":34962
		}
	],
	"samplers":[
		{
			"magFilter":9729,
			"minFilter":9987
		}
	],
	"buffers":[
		{
			"byteLength":904772,
			"uri":"Chicken.bin"
		}
	]
}
